<?xml version="1.0" encoding="UTF-8"?>
<svg version="1.1" xmlns="http://www.w3.org/2000/svg" width="1024" height="1024">
<path d="M0 0 C337.92 0 675.84 0 1024 0 C1024 337.92 1024 675.84 1024 1024 C686.08 1024 348.16 1024 0 1024 C0 686.08 0 348.16 0 0 Z " fill="#FEFEFE" transform="translate(0,0)"/>
<path d="M0 0 C7.59552978 5.45217041 13.02331406 12.45684004 14.71484375 21.82421875 C14.95955605 23.95958497 15.11380805 26.10497675 15.25 28.25 C16.21377563 28.23042236 16.21377563 28.23042236 17.19702148 28.21044922 C63.55139605 27.68938122 112.30869578 42.06123896 146.42407227 74.33007812 C169.26863994 96.75239866 185.09364056 133.27471409 185.41316223 165.28886414 C185.41732651 166.03271866 185.42149078 166.77657318 185.42578125 167.54296875 C185.44899026 169.15951808 185.47310803 170.77605456 185.49804688 172.39257812 C185.53299409 174.909022 185.56243294 177.42499445 185.57592773 179.94165039 C185.66193145 193.39395462 187.11945918 203.80164966 195.25 214.9375 C195.72493896 215.609021 196.19987793 216.28054199 196.68920898 216.97241211 C200.62389418 222.49614187 204.72368937 227.89749997 208.8203125 233.30151367 C212.26253172 237.86548742 215.56451843 242.50320741 218.75 247.25 C219.14711182 247.836604 219.54422363 248.42320801 219.95336914 249.02758789 C226.02683025 258.2008416 229.32172997 266.06673073 228.25 277.25 C226.42546968 283.94381823 221.8728378 288.43877559 216.25 292.25 C211.7038194 294.82625428 206.99102799 297.05927218 202.25 299.25 C202.7140625 300.3946875 202.7140625 300.3946875 203.1875 301.5625 C205.80061517 308.17214426 206.51974624 315.06164273 204.42578125 321.96875 C203.00243927 325.22815023 201.77751352 327.72248648 199.25 330.25 C199.25836769 332.00303149 199.27901038 333.7573794 199.37915039 335.50756836 C199.88871334 344.43572889 198.23107484 350.61971085 193.25 358.25 C192.92 358.58 192.59 358.91 192.25 359.25 C192.19898532 361.02531076 192.21466743 362.80260556 192.2578125 364.578125 C192.56733135 382.476673 192.83865639 398.66722403 180.01171875 412.625 C167.38492093 424.27189112 150.15007729 424.87012936 133.9375 424.5625 C132.36915268 424.55095967 130.80079132 424.54118921 129.23242188 424.53320312 C122.01987252 424.47558481 114.87208763 424.22921696 107.69311523 423.48364258 C103.60984984 423.09314743 99.53714489 422.98786419 95.4375 422.9375 C94.22803711 422.89399414 94.22803711 422.89399414 92.99414062 422.84960938 C87.58242554 422.79208501 84.46201806 423.54219432 80.25 427.25 C70.51610395 439.62301575 69.46633281 458.20660782 67.25 473.25 C67.06993408 474.4580127 67.06993408 474.4580127 66.88623047 475.69042969 C66.31497314 479.54024437 65.766156 483.39241305 65.25 487.25 C57.72407567 486.6122098 50.57901118 485.05110167 43.25 483.25 C43.65113793 459.10879014 47.74960059 426.68185765 64.86328125 408.296875 C71.58151609 402.53524643 79.72215224 399.12798687 88.5390625 399.1171875 C89.56386719 399.11589844 90.58867188 399.11460937 91.64453125 399.11328125 C92.71058594 399.11714844 93.77664063 399.12101562 94.875 399.125 C95.91785156 399.12113281 96.96070313 399.11726563 98.03515625 399.11328125 C102.72426981 399.11913532 107.33230482 399.20066008 111.9921875 399.7421875 C118.49728265 400.46874415 125.01668543 400.47268793 131.55419922 400.49023438 C133.74614833 400.49998287 135.93717403 400.53112651 138.12890625 400.5625 C147.13386084 400.62991943 155.15630121 400.06779082 163.1875 395.625 C170.11207895 387.65124242 168.43185823 376.67078558 167.88671875 366.83007812 C167.41895629 357.81265742 168.23331576 352.19776368 173.70019531 344.78808594 C176.26636935 340.58551106 175.74057827 336.80783041 175.25 332.0625 C174.74719552 323.25689163 174.74719552 323.25689163 176.78125 319.18359375 C178.5042797 317.27253501 180.1295498 315.69969555 182.25 314.25 C181.90066406 313.49074219 181.55132813 312.73148438 181.19140625 311.94921875 C180.73636719 310.95535156 180.28132813 309.96148438 179.8125 308.9375 C179.36003906 307.95136719 178.90757812 306.96523438 178.44140625 305.94921875 C175.95476933 300.31555938 175.32836254 295.34956427 176.25 289.25 C179.76248095 280.86727235 189.56859315 278.01328721 197.36328125 274.81640625 C198.06235596 274.53740479 198.76143066 274.25840332 199.48168945 273.97094727 C201.31042762 273.2516374 201.31042762 273.2516374 203.25 272.25 C202.70462276 267.48703875 200.52758751 263.96030901 198 260 C197.56107422 259.30398682 197.12214844 258.60797363 196.66992188 257.89086914 C192.79109601 251.85886335 188.48940706 246.20626274 184.08691406 240.55126953 C172.93265202 226.17752688 161.94343091 211.27712343 161.9765625 192.33203125 C161.95975187 190.82559155 161.94197504 189.31916238 161.92333984 187.81274414 C161.91279572 186.64873581 161.91279572 186.64873581 161.90203857 185.46121216 C161.55495787 154.67013911 156.11305193 122.28495062 135.25 98.25 C134.26966797 97.05503906 134.26966797 97.05503906 133.26953125 95.8359375 C109.44382424 67.80058826 72.10029424 57.48244073 37.0625 52.875 C35.79905762 52.70718018 34.53561523 52.53936035 33.23388672 52.36645508 C19.08548244 49.87232286 19.08548244 49.87232286 5.77954102 52.7734375 C3.84143066 54.48529381 3.84143066 54.48529381 2.0546875 56.4296875 C-4.7806617 63.32421721 -13.80798821 63.5029416 -22.88330078 63.58447266 C-28.28447851 63.52665354 -32.36405147 62.863375 -37.0234375 59.9296875 C-38.75402685 59.04137823 -38.75402685 59.04137823 -40.59765625 59.81640625 C-43.5257225 61.76667905 -46.16301595 64.00784948 -48.8125 66.3125 C-49.97190721 67.3094655 -51.13207607 68.30554586 -52.29296875 69.30078125 C-52.87224121 69.79787598 -53.45151367 70.2949707 -54.04833984 70.80712891 C-56.53703117 72.9173392 -59.08167864 74.95619681 -61.625 77 C-65.3011899 79.98989685 -68.70970888 83.07716329 -71.99121094 86.49169922 C-73.64026386 88.14029433 -75.33955138 89.63784074 -77.12109375 91.140625 C-82.76889252 96.05203645 -88.0530646 101.33052793 -93.35205078 106.61181641 C-95.13523325 108.38517689 -96.92881391 110.14758766 -98.72265625 111.91015625 C-99.86523817 113.04621679 -101.00718835 114.18291312 -102.1484375 115.3203125 C-102.68173676 115.84126495 -103.21503601 116.36221741 -103.76449585 116.8989563 C-106.66323482 119.81528521 -108.54400197 122.29856695 -109.75 126.25 C-107.45997897 128.93259606 -105.89606889 129.65587197 -102.4375 130.1875 C-95.19508101 131.63128855 -91.0397124 135.48952906 -86.75 141.25 C-84.80072406 147.09782781 -84.75618489 153.83785806 -87.1875 159.5625 C-89.97573758 164.25796953 -93.69856914 167.22649504 -98.75 169.25 C-105.32573497 170.45297747 -111.02979334 170.22190555 -116.8125 166.6875 C-121.43916603 163.04559224 -124.15526576 159.5671815 -125.203125 153.72265625 C-125.63256532 149.87464495 -125.75 146.12344847 -125.75 142.25 C-134.58791541 152.89366889 -142.94136073 163.80647739 -151.08740234 174.98632812 C-153.09190394 177.7155115 -155.13661745 180.41223069 -157.18676758 183.10717773 C-164.75249209 193.06424141 -171.93408927 203.29980635 -178.94897461 213.65161133 C-180.10488915 215.3192809 -181.30362542 216.9585056 -182.55297852 218.55737305 C-187.02506748 224.47876835 -187.43871204 228.89208037 -186.9375 236.1875 C-186.38514071 245.97312443 -188.12096822 253.21132881 -191.75 262.25 C-191.03447464 262.96552536 -190.31894928 263.68105072 -189.58174133 264.41825867 C-161.66587067 292.33412933 -161.66587067 292.33412933 -133.75 320.25 C-132.83528931 321.16438339 -131.92057861 322.07876678 -130.97814941 323.02085876 C-129.28561526 324.71414632 -127.59824763 326.41178236 -125.91796875 328.1171875 C-120.93776833 333.1503952 -115.97453123 338.11255797 -110.53125 342.65234375 C-108.75 344.25 -108.75 344.25 -107.09375 346.19140625 C-103.827667 350.02970032 -103.827667 350.02970032 -99.21875 351.734375 C-97.34316346 351.82920803 -95.4667229 351.9082914 -93.58984375 351.97265625 C-85.71182539 352.74203631 -80.05522432 357.30915561 -75.125 363.1875 C-70.74962627 369.75056059 -71.09964684 376.61251928 -71.75 384.25 C-72.99516038 390.08176379 -74.90541767 393.85880008 -79.7421875 397.390625 C-84.59252991 401.51099198 -85.40709549 405.44610018 -86.375 411.5625 C-86.76347197 413.62150113 -87.1541836 415.68008068 -87.546875 417.73828125 C-87.74087891 418.80643066 -87.93488281 419.87458008 -88.13476562 420.97509766 C-89.15980631 426.43140547 -90.38179566 431.8398339 -91.625 437.25 C-91.8710498 438.32507813 -92.11709961 439.40015625 -92.37060547 440.5078125 C-95.36177129 453.27727376 -98.87485795 466.06214488 -103.75 478.25 C-111.34 478.25 -118.93 478.25 -126.75 478.25 C-125.01396944 471.88455462 -123.26115346 465.57959792 -121.35229492 459.27246094 C-118.1924229 448.76188119 -115.42895554 438.18574273 -112.9375 427.5 C-112.6477832 426.26403076 -112.35806641 425.02806152 -112.05957031 423.75463867 C-111.25766897 420.25918944 -110.4957388 416.75781831 -109.75 413.25 C-109.49532959 412.12271484 -109.24065918 410.99542969 -108.97827148 409.83398438 C-108.65258179 408.23780273 -108.65258179 408.23780273 -108.3203125 406.609375 C-108.12066895 405.67061523 -107.92102539 404.73185547 -107.71533203 403.76464844 C-107.50591876 401.12020359 -107.50591876 401.12020359 -109.4206543 399.00878906 C-111.40343259 397.20970576 -111.40343259 397.20970576 -113.63671875 395.75 C-117.87433205 392.74215618 -119.45381695 389.2135825 -120.75 384.25 C-120.98046875 381.03125 -120.98046875 381.03125 -120.9375 377.75 C-120.92783203 376.12578125 -120.92783203 376.12578125 -120.91796875 374.46875 C-120.75 371.25 -120.75 371.25 -119.75732422 368.57592773 C-119.74863418 364.62977977 -120.33509255 364.11816977 -122.90600586 361.28344727 C-124.4075602 359.77622505 -125.92869443 358.28835378 -127.46484375 356.81640625 C-128.26853897 356.02024399 -129.07223419 355.22408173 -129.90028381 354.40379333 C-132.4800908 351.85655703 -135.08339129 349.33486215 -137.6875 346.8125 C-139.40844256 345.11810071 -141.12786251 343.42215345 -142.84570312 341.72460938 C-151.57298902 333.07083855 -151.57298902 333.07083855 -160.70532227 324.85400391 C-165.63316512 320.59259537 -169.95379052 315.79430849 -174.375 311.01953125 C-176.71086772 308.55760516 -179.05172627 306.10072772 -181.39756775 303.6483202 C-183.82900871 301.10092979 -186.23883722 298.53822265 -188.61083984 295.93530273 C-197.92530485 284.55718434 -197.92530485 284.55718434 -210.16931152 277.74627686 C-215.29490167 277.92740224 -219.23124699 280.00814573 -223.75 282.25 C-234.91091525 283.78574323 -245.56345365 280.5603383 -254.65234375 274.01171875 C-263.27515904 266.7698385 -269.75004044 257.6106718 -270.97314453 246.16113281 C-271.45000439 236.94184224 -271.49864735 228.43069154 -266.75 220.25 C-266.32589844 219.48558594 -265.90179688 218.72117187 -265.46484375 217.93359375 C-259.63367331 208.33409032 -251.42507802 201.76254356 -240.75 198.25 C-237.69461146 197.6574934 -234.86991059 197.40343823 -231.75 197.25 C-231.67007813 195.98027344 -231.59015625 194.71054687 -231.5078125 193.40234375 C-230.66073408 185.06400657 -228.54955859 176.95331025 -226.625 168.8125 C-226.41490295 167.91445648 -226.20480591 167.01641296 -225.98834229 166.09115601 C-219.65634001 139.04387129 -212.67551329 112.15007408 -205.75 85.25 C-206.69057251 84.80539429 -206.69057251 84.80539429 -207.65014648 84.35180664 C-212.63973306 81.73373848 -215.67875725 76.06598799 -217.625 70.9375 C-219.85443501 63.18120217 -219.7922756 55.61829709 -216.0625 48.37890625 C-211.23800664 40.55346315 -205.71746187 35.80200496 -196.75 33.25 C-187.48644709 32.01959195 -179.33084345 33.62870938 -171.5625 38.8125 C-166.25700084 43.04628833 -161.91294377 49.48140595 -160.75 56.25 C-160.65771104 57.99806146 -160.6199986 59.74951118 -160.625 61.5 C-160.62113281 62.83804688 -160.62113281 62.83804688 -160.6171875 64.203125 C-160.75 67.25 -160.75 67.25 -161.71264648 70.92895508 C-162.05275851 73.67677652 -161.97786419 74.87257815 -160.53277588 77.2661438 C-158.61274005 79.44676687 -156.59576301 81.44168149 -154.48046875 83.43359375 C-153.35346306 84.54505516 -153.35346306 84.54505516 -152.20368958 85.67897034 C-149.80193335 88.03704326 -147.3704859 90.3617068 -144.9375 92.6875 C-143.3098585 94.27856529 -141.68418215 95.87164356 -140.06054688 97.46679688 C-137.08990959 100.37078112 -134.11440658 103.2690758 -131.11401367 106.14233398 C-130.51143234 106.71999008 -129.90885101 107.29764618 -129.28800964 107.89280701 C-127.77633901 109.34369679 -127.77633901 109.34369679 -125.75 110.25 C-125.52699219 109.69828125 -125.30398438 109.1465625 -125.07421875 108.578125 C-123.33445903 105.5194324 -121.09235518 103.4426188 -118.5625 101 C-115.27255316 97.78709858 -112.05385739 94.55934139 -109.0625 91.0625 C-103.73090065 84.84230076 -97.88170435 79.28833823 -91.671875 73.95703125 C-89.8400398 72.32997438 -88.13871889 70.63697671 -86.4375 68.875 C-82.74547036 65.11584255 -78.68814787 61.88065794 -74.5859375 58.58203125 C-71.83219378 56.3175891 -69.19193891 53.96944792 -66.5625 51.5625 C-62.47944169 47.83875082 -58.24953499 44.45497604 -53.75 41.25 C-53.90726563 40.38632813 -54.06453125 39.52265625 -54.2265625 38.6328125 C-55.9881341 27.24832737 -54.71205935 17.93688964 -48.3984375 8.15625 C-36.52986788 -6.96125767 -16.05430787 -10.0574726 0 0 Z " fill="#1C375A" transform="translate(508.75,202.75)"/>
<path d="M0 0 C13.53 0 27.06 0 41 0 C41 47.52 41 95.04 41 144 C27.47 144 13.94 144 0 144 C0 96.48 0 48.96 0 0 Z " fill="#2F82C9" transform="translate(550,365)"/>
<path d="M0 0 C13.86 0 27.72 0 42 0 C42 34.32 42 68.64 42 104 C28.14 104 14.28 104 0 104 C0 69.68 0 35.36 0 0 Z " fill="#2D81C9" transform="translate(491,405)"/>
<path d="M0 0 C-0.72158562 7.95548143 -2.13891063 15.76468168 -3.58398438 23.61328125 C-4.00274187 25.8899065 -4.41575795 28.167522 -4.828125 30.4453125 C-5.09341348 31.89849897 -5.35902671 33.35162621 -5.625 34.8046875 C-5.74794434 35.48280487 -5.87088867 36.16092224 -5.99755859 36.85958862 C-6.51583073 39.66080482 -7.09744594 42.29233781 -8 45 C-13.32697239 43.54718935 -16.36402802 39.91888622 -20 36 C-24.08207345 37.61724151 -26.80398063 40.54384801 -29.8125 43.625 C-30.30814453 44.12128906 -30.80378906 44.61757813 -31.31445312 45.12890625 C-34.07224552 47.91864218 -36.69636073 50.78403652 -39.25 53.76171875 C-43.63951731 58.82603432 -48.41609828 63.4862144 -53.1875 68.1875 C-54.95420186 69.92857892 -56.71860727 71.67199183 -58.48046875 73.41796875 C-59.25285889 74.17875732 -60.02524902 74.9395459 -60.82104492 75.72338867 C-63.04047201 78.04228588 -65.00199543 80.49043805 -67 83 C-69.5545309 84.93791999 -70.94401088 84.99890217 -74.1875 85.0625 C-78.80785491 83.77486011 -81.36129982 81.56693125 -84.88671875 78.3984375 C-86.83283957 76.80283911 -86.83283957 76.80283911 -88.82455444 77.12536621 C-91.88191387 78.35457181 -93.60578448 80.2548947 -95.92041016 82.59570312 C-96.39570663 83.07216782 -96.87100311 83.54863251 -97.36070251 84.03953552 C-98.92723772 85.61324804 -100.48298718 87.19719998 -102.0390625 88.78125 C-103.12641705 89.87674167 -104.21451168 90.97149922 -105.30331421 92.06555176 C-108.16625997 94.94561064 -111.02051783 97.83412125 -113.87261963 100.72491455 C-118.44275332 105.35426212 -123.02564916 109.97096831 -127.60908127 114.58714294 C-129.21053092 116.20257842 -130.80812063 117.82175558 -132.40518188 119.44152832 C-133.38283186 120.42919937 -134.36055994 121.41679312 -135.33837891 122.40429688 C-136.1923526 123.26953979 -137.04632629 124.13478271 -137.92617798 125.02624512 C-140.4423229 127.42097971 -141.41394895 127.9362988 -144.875 128.3125 C-148 128 -148 128 -150.3125 126.4375 C-152.67000607 123.03221345 -153.20847541 121.16950824 -153 117 C-147.99671787 109.50424677 -140.38899534 103.24295508 -134.01171875 96.87890625 C-132.860516 95.72702865 -131.70946163 94.57500275 -130.55854797 93.4228363 C-128.16231445 91.02513787 -125.76430495 88.62923418 -123.36499023 86.23461914 C-120.28700684 83.16237118 -117.21358714 80.0856028 -114.14145184 77.00750828 C-111.77300658 74.63545767 -109.40219507 72.2657837 -107.03064919 69.89683342 C-105.89558292 68.7624345 -104.76125975 67.62729155 -103.62769127 66.49139595 C-102.05066471 64.91183915 -100.47048488 63.33550718 -98.8894043 61.76000977 C-97.99118454 60.8625856 -97.09296478 59.96516144 -96.16752625 59.0405426 C-93.64863269 56.6692174 -92.67642491 56.07686647 -89.25 55.6875 C-83.40444058 56.24957302 -79.40706704 60.37065067 -75 64 C-71.45879942 62.49089988 -69.18395635 60.42880686 -66.48046875 57.7109375 C-65.62259766 56.85113281 -64.76472656 55.99132812 -63.88085938 55.10546875 C-62.99205078 54.20441406 -62.10324219 53.30335938 -61.1875 52.375 C-60.31029297 51.49714844 -59.43308594 50.61929688 -58.52929688 49.71484375 C-54.03676518 45.19207063 -49.69805314 40.59878192 -45.54370117 35.76416016 C-43.3221891 33.2253896 -40.96442711 30.869024 -38.5625 28.5 C-37.26505859 27.21609375 -37.26505859 27.21609375 -35.94140625 25.90625 C-35.30074219 25.2771875 -34.66007813 24.648125 -34 24 C-36.84675172 20.60541977 -39.67154173 17.25327381 -42.875 14.1875 C-45 12 -45 12 -45 10 C-39.23565484 8.5699434 -33.46985957 7.14594589 -27.70263672 5.72753906 C-25.74096308 5.24417645 -23.77969579 4.75916154 -21.81884766 4.27246094 C-19.00007685 3.57312033 -16.17989742 2.87973752 -13.359375 2.1875 C-12.04510529 1.85939331 -12.04510529 1.85939331 -10.70428467 1.5246582 C-9.47346161 1.22434692 -9.47346161 1.22434692 -8.21777344 0.91796875 C-7.49829529 0.74031982 -6.77881714 0.5626709 -6.03753662 0.37963867 C-4 0 -4 0 0 0 Z " fill="#1B3659" transform="translate(583,296)"/>
<path d="M0 0 C2.26080088 1.8113487 4.15764417 3.55106766 6.1484375 5.625 C6.72405426 6.20531982 7.29967102 6.78563965 7.89273071 7.38354492 C9.73215539 9.24430141 11.55328046 11.12192372 13.375 13 C14.59264659 14.23416254 15.81138608 15.46724781 17.03125 16.69921875 C20.38793265 20.10100429 23.70409966 23.53937386 27 27 C27.79567383 27.83144531 28.59134766 28.66289062 29.41113281 29.51953125 C30.05147461 30.21433594 30.69181641 30.90914063 31.3515625 31.625 C31.87830566 32.19476563 32.40504883 32.76453125 32.94775391 33.3515625 C34 35 34 35 34 39 C32.47909805 41.04782861 30.96021893 42.87310598 29.25 44.75 C25.05816486 49.52514736 21.0921326 54.39209284 17.3125 59.5 C13.2754424 64.95189553 9.19701242 70.36643268 5.06494141 75.74682617 C-2.09795794 85.08027542 -9.04369561 94.52884599 -15.74853516 104.19628906 C-17.5725649 106.82522619 -19.41211485 109.44323853 -21.25 112.0625 C-22.61125 114.0115625 -22.61125 114.0115625 -24 116 C-27.3 114.35 -30.6 112.7 -34 111 C-28.54502419 81.65797223 -21.40347557 52.64952088 -13.78521729 23.80151367 C-13.30581294 21.98462747 -12.82950229 20.16692197 -12.35638428 18.34838867 C-11.69757878 15.82430036 -11.02493291 13.30434213 -10.34765625 10.78515625 C-10.1542717 10.03718277 -9.96088715 9.28920929 -9.76164246 8.51856995 C-8.17493465 2.72609887 -6.66462408 -1.33220079 0 0 Z " fill="#FBFCFC" transform="translate(332,293)"/>
<path d="M0 0 C14.19 0 28.38 0 43 0 C43 22.77 43 45.54 43 69 C28.81 69 14.62 69 0 69 C0 46.23 0 23.46 0 0 Z " fill="#2F81C9" transform="translate(431,440)"/>
<path d="M0 0 C5.18745874 3.03417398 9.00674047 7.34682279 11.3125 12.9375 C12.17147311 18.81047891 11.59409667 23.99648658 8.65625 29.1796875 C5.68087266 33.07189622 1.91029672 35.40490109 -2.6875 36.9375 C-9.87525819 37.63567396 -14.87619898 37.35408878 -20.6875 32.9375 C-25.26199384 28.3749189 -26.84486417 24.62155458 -27 18.1875 C-26.94455921 12.44937858 -26.18386436 9.47332404 -22.6875 4.9375 C-15.93745967 -1.46638442 -8.77636147 -2.52878212 0 0 Z " fill="#FCFDFD" transform="translate(287.6875,424.0625)"/>
<path d="M0 0 C3.209381 1.53175002 5.70326101 3.29086312 8 6 C9.2179198 10.11626061 9.47377742 13.81555644 7.875 17.8125 C2.8958267 23.62153552 2.8958267 23.62153552 -1.11328125 24.421875 C-5.26100004 24.67282941 -8.12722097 24.37063757 -11.4375 21.75 C-14.5885381 18.36839813 -15.78147047 16.67539309 -16.375 12.125 C-15.78146428 7.17886897 -13.50741708 4.22223006 -9.6875 1.125 C-6.20647239 -0.33217435 -3.74471902 -0.40121989 0 0 Z " fill="#FAFBFB" transform="translate(492,220)"/>
<path d="M0 0 C1.72230124 4.0840197 0.06991333 7.37469343 -1.4375 11.25 C-2.283125 13.4775 -3.12875 15.705 -4 18 C-11.59 18 -19.18 18 -27 18 C-26.34 16.02 -25.68 14.04 -25 12 C-24.67 12.99 -24.34 13.98 -24 15 C-17.73 15.33 -11.46 15.66 -5 16 C-4.54625 14.47375 -4.0925 12.9475 -3.625 11.375 C-2.48147089 7.55962324 -1.28943493 3.76911748 0 0 Z " fill="#1C2D47" transform="translate(409,663)"/>
<path d="M0 0 C-0.515625 0.4125 -1.03125 0.825 -1.5625 1.25 C-2.036875 1.8275 -2.51125 2.405 -3 3 C-2.52916374 7.21184433 -0.25811292 8.82722223 2.8203125 11.4375 C4 13 4 13 3.90234375 14.984375 C2.80197734 17.44233633 1.53240426 18.57407659 -0.5625 20.25 C-1.20316406 20.77078125 -1.84382812 21.2915625 -2.50390625 21.828125 C-3.24447266 22.40820312 -3.24447266 22.40820312 -4 23 C-2.47291037 19.56404834 -0.40072955 16.88087546 2 14 C1.2059375 13.22914063 0.411875 12.45828125 -0.40625 11.6640625 C-1.43776041 10.65130683 -2.46899627 9.63827148 -3.5 8.625 C-4.28697266 7.86316406 -4.28697266 7.86316406 -5.08984375 7.0859375 C-6.43153181 5.76167396 -7.71995815 4.38394135 -9 3 C-9 2.34 -9 1.68 -9 1 C-5.92677456 0.08941469 -3.19902639 -0.08886184 0 0 Z " fill="#112040" transform="translate(547,305)"/>
<path d="M0 0 C0.66 0.33 1.32 0.66 2 1 C0.50902342 4.7952131 -1.75700849 6.61042731 -5 9 C-5.66 8.34 -6.32 7.68 -7 7 C-4.69 4.69 -2.38 2.38 0 0 Z " fill="#172B4E" transform="translate(434,261)"/>
<path d="M0 0 C-1.625 2 -1.625 2 -4 4 C-7.25 4.25 -7.25 4.25 -10 4 C-10.33 3.34 -10.66 2.68 -11 2 C-7.17010894 0.19769832 -4.21878192 -0.19622241 0 0 Z " fill="#192E4F" transform="translate(580,297)"/>
<path d="M0 0 C0 3.58912412 -0.66436554 4.10857029 -3 6.6875 C-3.556875 7.31011719 -4.11375 7.93273437 -4.6875 8.57421875 C-5.120625 9.04472656 -5.55375 9.51523437 -6 10 C-6.99 9.67 -7.98 9.34 -9 9 C-6.03 6.03 -3.06 3.06 0 0 Z " fill="#283553" transform="translate(542,327)"/>
<path d="M0 0 C4.83256305 0.41421969 6.82679218 2.46413986 10 6 C8.68 5.67 7.36 5.34 6 5 C5.67 5.66 5.34 6.32 5 7 C4.9175 6.401875 4.835 5.80375 4.75 5.1875 C3.79544128 2.4033704 2.42867729 1.56688858 0 0 Z " fill="#0F2040" transform="translate(420,557)"/>
<path d="M0 0 C3.36720387 1.39332574 4.9859524 2.9789286 7 6 C5.68 6.33 4.36 6.66 3 7 C1.79371992 4.66785852 0.8345262 2.50357861 0 0 Z " fill="#2C3D5B" transform="translate(398,547)"/>
<path d="M0 0 C-1.45537568 0.83848804 -2.91440373 1.67063934 -4.375 2.5 C-5.59316406 3.19609375 -5.59316406 3.19609375 -6.8359375 3.90625 C-9 5 -9 5 -11 5 C-11 4.01 -11 3.02 -11 2 C-9.54494642 1.47007308 -8.08581873 0.9513211 -6.625 0.4375 C-5.81289063 0.14746094 -5.00078125 -0.14257812 -4.1640625 -0.44140625 C-2 -1 -2 -1 0 0 Z " fill="#0C1C3F" transform="translate(724,495)"/>
<path d="M0 0 C0.66 0.66 1.32 1.32 2 2 C1.9765625 4.1640625 1.9765625 4.1640625 1.625 6.625 C1.51414062 7.44226563 1.40328125 8.25953125 1.2890625 9.1015625 C1.19367187 9.72804688 1.09828125 10.35453125 1 11 C0.67 11 0.34 11 0 11 C-1.28571429 3.57142857 -1.28571429 3.57142857 0 0 Z " fill="#152A4C" transform="translate(578,309)"/>
<path d="M0 0 C0.99 0.495 0.99 0.495 2 1 C2.4140625 3.06640625 2.4140625 3.06640625 2.625 5.5625 C2.69976563 6.38878906 2.77453125 7.21507812 2.8515625 8.06640625 C2.92503906 9.02353516 2.92503906 9.02353516 3 10 C1.51171875 8.73046875 1.51171875 8.73046875 0 7 C-0.1875 3.3125 -0.1875 3.3125 0 0 Z " fill="#182A48" transform="translate(687,338)"/>
<path d="M0 0 C2.97 0.495 2.97 0.495 6 1 C3.28790442 2.80806372 1.10633303 4.06810009 -2 5 C-2.99 4.34 -3.98 3.68 -5 3 C-3.35 2.34 -1.7 1.68 0 1 C0 0.67 0 0.34 0 0 Z " fill="#244164" transform="translate(546,304)"/>
<path d="M0 0 C0.99 0.66 1.98 1.32 3 2 C1.02 3.98 -0.96 5.96 -3 8 C-3.66 7.67 -4.32 7.34 -5 7 C-4.360625 6.21625 -3.72125 5.4325 -3.0625 4.625 C-1.01857687 2.20460719 -1.01857687 2.20460719 0 0 Z " fill="#254062" transform="translate(426,268)"/>
</svg>
